<?xml version="1.0" encoding="UTF-8"?>
<COLLADA xmlns="http://www.collada.org/2005/11/COLLADASchema" version="1.4.1">
<!--
# File generated by ImageToStl.com - Free Image and 3D model conversion tools
-->
  <asset>
    <contributor>
      <author>ImageToStl.com</author>
      <authoring_tool>ImageToStl.com</authoring_tool>
    </contributor>
    <created>2026-06-07T10:18:38</created>
    <modified>2026-06-07T10:18:38</modified>
    <up_axis>Z_UP</up_axis>
  </asset>
  <library_effects>
    <effect id="effect_0">
        <profile_COMMON>
          <technique sid="common">
            <phong>
              <diffuse>
                <color>0.9 0.5 0.1 1.0</color>
              </diffuse>
              <specular>
                <color>0.05 0.05 0.05 1</color>
              </specular>
              <shininess>
                <float>64</float>
              </shininess>
            </phong>
          </technique>
        </profile_COMMON>
    </effect>
  </library_effects>
  <library_materials>
    <material id="mat_0">
      <instance_effect url="#effect_0"/>
    </material>
  </library_materials>
  <library_geometries>
    <geometry id="geometry_0776fe8c_8f6e_4b65_bf2f_4741d848fbe7">
      <mesh>
        <source id="pos_0">
          <float_array id="pos_0-array" count="1146">0.00036 0.003368 -0.0016 0.002339 0.002355 -0.001585 0.002051 0.001224 -0.00157 0.002999 4.5E-05 -0.001597 0.002 -0.000514 -0.001597 0.002346 -0.001421 -0.001587 0.001026 -0.00245 -0.001595 0.000521 0.00343 -0.000134 0.002546 0.002198 -0.000137 0.003038 5.3E-05 -0.000134 0.002078 -0.001925 -0.000134 0.002155 -3.6E-05 -0.000118 0.001448 0.001968 -0.000129 0.000827 0.002419 -0.001591 -0.00107 0.002381 -0.001584 -0.001871 0.002811 -0.001607 -0.002153 0.00082 -0.001587 -0.003009 0.000679 -0.001594 -0.001967 -0.000523 -0.00159 -0.002455 -0.001331 -0.001596 -0.000723 -0.001722 -0.001595 -0.00097 -0.002432 -0.001585 0.002186 0.003775 -9.1E-05 0.000734 0.004323 -9E-05 0.003924 0.001134 -9E-05 0.003445 0.002457 -8.7E-05 0.000985 -0.001534 -0.001588 0.000722 -0.00161 -0.000134 0.003376 -0.001785 -9.1E-05 0.003923 -0.000333 -9E-05 1.5E-05 -0.002658 -0.000138 0.002057 -0.003045 -8.7E-05 -0.001792 0.002951 -0.000134 -0.000733 0.004323 -9E-05 -0.002056 0.003845 -8.7E-05 -1.1E-05 0.002517 -0.00013 -0.001465 0.001952 -0.000129 -0.002086 0.000669 -0.000131 -0.002975 0.001103 -0.000137 -0.003375 0.002585 -9.1E-05 -0.003923 0.001133 -9E-05 -0.000698 -0.001584 -0.000132 -0.001819 -0.000721 -0.000138 -0.001785 -0.002104 -0.000134 -0.002707 -0.002661 -8.4E-05 -0.00073 -0.00352 -9.2E-05 0.001298 -0.000812 -9.1E-05 -0.000156 -0.001366 -8.8E-05 0.001741 0.000986 -8.9E-05 -0.00174 -0.000186 -8.9E-05 0.000156 0.002166 -8.8E-05 -0.001297 0.001612 -9.1E-05 -0.001526 0.001318 0.007387 -0.00086 -0.001035 0.007387 0.000861 0.001835 0.007387 0.001526 -0.000518 0.007388 -0.002887 -0.000605 -0.000135 -0.003945 -0.000346 -0.0001 -0.000909 -0.003673 0.007858 -0.003045 -0.002643 0.00788 -0.004073 -0.00051 0.007858 -0.007332 -0.00052 0.007857 -0.007497 -0.000353 -9.5E-05 -0.007492 0.001149 -9.5E-05 -0.000913 0.004475 0.00786 -0.002675 0.003687 0.007873 -0.000916 0.007728 0.007857 -0.000754 0.007897 -9.5E-05 0.00075 0.007892 -9.5E-05 -0.00534 0.009219 -5.5E-05 0.00473 0.0093 -5.1E-05 0.000916 0.007727 0.007856 0.000959 0.004515 0.007867 0.003287 0.003076 0.007873 0.004076 0.001313 0.00786 -0.004115 0.001359 0.007867 0.000734 -0.003523 -9E-05 0.000914 -0.003675 0.00786 0.002675 -0.002887 0.007872 0.000916 -0.006927 0.007858 0.000754 -0.007097 -9.5E-05 -0.000756 -0.007098 -9.4E-05 -0.000916 -0.006927 0.007858 0.004115 -0.000559 0.007866 -0.007332 0.00132 0.007856 -0.008931 -0.00851 -1.4E-05 0.008931 -0.00851 -1.4E-05 0 -0.008404 0.007739 0.00227 -0.008351 0.009334 0.008786 0.005971 -4.8E-05 0.007493 -0.000349 -9.5E-05 0.007498 -0.007093 -9.4E-05 0.008809 0.0004 0.007735 0.008675 0.005719 0.009307 0.008757 0.002672 0.00933 0.008763 -0.008334 0.009289 0.008759 -0.001872 0.009329 0.002248 -0.001848 0.009376 0 0.0004 0.007811 -0.002244 -0.001844 0.009375 -0.002274 -0.00835 0.009337 -0.008772 -0.008336 0.009272 -0.008759 -0.001876 0.00933 -0.008893 0.0053 -4.2E-05 -0.008804 0.0004 0.007741 0.007333 -0.006927 0.007858 -0.002262 0.002663 0.009384 -0.008758 0.002672 0.009329 -0.008709 0.005339 0.00931 -0.007492 -0.007098 -9.4E-05 -0.007333 -0.006928 0.007857 -0.007818 0.007318 0.00934 -0.007861 0.007591 -5.5E-05 -0.007258 0.006089 -8.8E-05 -0.004972 0.007838 -9.3E-05 0.002263 0.002663 0.009384 0.006869 0.008503 -5.2E-05 0.007365 0.005727 -9.4E-05 0.007497 0.001154 -9.5E-05 0.007075 0.008169 0.009319 0.007331 -0.00052 0.007858 0.002269 0.009146 0.009336 0.004843 0.009117 0.009317 0 0.009204 0.007741 -0.002268 0.009146 0.009336 -0.005692 0.009004 0.009289 0.005344 0.007756 -8.6E-05 0.007332 0.00132 0.007857 0.00731 0.004981 0.007864 0.006608 0.006569 0.007887 0.004925 0.007663 0.007863 -0.00509 0.007628 0.007868 -0.007141 0.005842 0.007869 0.008893 0.00529999 0.0305256 0.008931 -0.00851001 0.0304976 0.008804 0.00039999 0.0227426 0.008759 -0.00187601 0.0211536 0.007497 -0.00035301 0.0305786 0.007492 0.00114899 0.0305786 0.003923 0.00113299 0.0305736 -0.008931 -0.00851001 0.0304976 -0.000754 -0.00709701 0.0305786 0.000756 -0.00709801 0.0305776 0.00073 -0.00352001 0.0305756 0 -0.00840401 0.0227446 -0.00227 -0.00835101 0.0211496 0.008772 -0.00833601 0.0212116 0.002274 -0.00835001 0.0211466 0.008709 0.00533899 0.0211736 0.007818 0.00731799 0.0211436 0.007861 0.00759099 0.0305386 0.007258 0.00608899 0.0305716 0.00534 0.00921899 0.0305386 0.004972 0.00783799 0.0305766 0.000754 0.00789699 0.0305786 0.002244 -0.00184401 0.0211086 0 0.00039999 0.0226726 0.002262 0.00266299 0.0210996 0.008758 0.00267199 0.0211546 0.005692 0.00900399 0.0211946 0.003945 -0.00034601 0.0305836 0.007332 -0.00052001 0.0226266 0.004073 -0.00051001 0.0226256 0.007333 -0.00692801 0.0226266 0.007492 -0.00709801 0.0305776 0.000916 -0.00692701 0.0226256 0.007332 0.00131999 0.0226276 0.007141 0.00584199 0.0226146 0.004115 0.00135899 0.0226166 0.003045 -0.00264301 0.0226036 0.002675 0.00368699 0.0226106 0.00509 0.00762799 0.0226156 0.000913 0.00447499 0.0226236 0.002268 0.00914599 0.0211476 0 0.00920399 0.0227426 -0.00473 0.00929999 0.0305346 -0.00075 0.00789199 0.0305786 -0.005344 0.00775599 0.0305696 0.000916 0.00772799 0.0226266 0.003375 0.00258499 0.0305746 0.002056 0.00384499 0.0305706 0.002707 -0.00266101 0.0305676 0.002887 -0.00060501 0.0306186 0.002975 0.00110299 0.0306206 0.001792 0.00295099 0.0306176 0.000733 0.00432299 0.0305736 -0.000521 0.00342999 0.0306176 -0.000734 0.00432299 0.0305736 -0.002186 0.00377499 0.0305746 0.000909 -0.00367301 0.0226256 0.003009 0.00067899 0.0320776 0.002455 -0.00133101 0.0320796 0.001871 0.00281099 0.0320906 0.002153 0.00081999 0.0320706 0.00107 0.00238099 0.0320676 0.001967 -0.00052301 0.0320736 0.001785 -0.00210401 0.0306176 -1.5E-05 -0.00265801 0.0306216 -0.000734 -0.00352301 0.0305736 0.00097 -0.00243201 0.0320686 0.000723 -0.00172201 0.0320786 0.001465 0.00195199 0.0306126 0.002086 0.00066899 0.0306146 0.001819 -0.00072101 0.0306216 0.00174 -0.00018601 0.0305726 0.001297 0.00161199 0.0305746 0.000698 -0.00158401 0.0306156 -0.00036 0.00336799 0.0320836 -0.000827 0.00241899 0.0320746 0.001526 0.00131799 0.0230966 0.00086 -0.00103501 0.0230966 0.000156 -0.00136601 0.0305716 -0.000722 -0.00161001 0.0306176 -0.000156 0.00216599 0.0305716 -0.000861 0.00183499 0.0230966 -0.001526 -0.00051801 0.0230956 1.1E-05 0.00251699 0.0306136 -0.001026 -0.00245001 0.0320786 -0.001298 -0.00081201 0.0305746 -0.000985 -0.00153401 0.0320716 -0.002 -0.00051401 0.0320806 -0.002346 -0.00142101 0.0320706 -0.002999 4.499E-05 0.0320806 -0.002155 -3.601E-05 0.0306016 -0.001448 0.00196799 0.0306126 -0.001741 0.00098599 0.0305726 -0.002248 -0.00184801 0.0211076 -0.008809 0.00039999 0.0227486 -0.008759 -0.00187201 0.0211546 -0.002263 0.00266299 0.0210996 -0.008757 0.00267199 0.0211536 -0.002269 0.00914599 0.0211476 -0.004843 0.00911699 0.0211666 -0.002078 -0.00192501 0.0306176 -0.002057 -0.00304501 0.0305706 -0.003376 -0.00178501 0.0305746 -0.002339 0.00235499 0.0320686 -0.002546 0.00219799 0.0306206 -0.002051 0.00122399 0.0320536 -0.000914 -0.00367501 0.0226236 -0.002675 -0.00288701 0.0226116 -0.000916 -0.00692701 0.0226256 -0.000916 0.00772699 0.0226276 -0.000959 0.00451499 0.0226166 -0.003287 0.00307599 0.0226106 -0.003445 0.00245699 0.0305706 -0.004076 0.00131299 0.0226236 -0.003924 0.00113399 0.0305736 -0.004925 0.00766299 0.0226206 -0.007498 -0.00709301 0.0305776 -0.007333 -0.00692701 0.0226256 -0.007493 -0.00034901 0.0305786 -0.008786 0.00597099 0.0305316 -0.007497 0.00115399 0.0305786 -0.007365 0.00572699 0.0305776 -0.004115 -0.00055901 0.0226176 -0.003038 5.299E-05 0.0306176 -0.003923 -0.00033301 0.0305736 -0.008763 -0.00833401 0.0211946 -0.008675 0.00571899 0.0211766 -0.007075 0.00816899 0.0211646 -0.007331 -0.00052001 0.0226256 -0.00731 0.00498099 0.0226196 -0.006608 0.00656899 0.0225966 -0.007332 0.00131999 0.0226266 -0.006869 0.00850299 0.0305356 0.01193183 0.01664877 0.00381 0.0041 0.02606215 0.00381 0.01193183 0.01664877 0.00762 0.0041 0.02606215 0.02667 0.01193183 0.01664877 0.02286 0.01193183 0.01664877 0.02667 0.0041 0.01663762 0.00762 0.0041 0.01663762 0.02286 -0.0034 0.01663178 0.00381 -0.0034 0.077587 -0.03619 -0.0034 0.01662694 0.00381 -0.0034 0.01280936 -0.00040635 -0.0034 0.01280936 0.00381 -0.0034 0.09218841 0.06618004 -0.0034 0.09218841 -0.03619 -0.0034 0.01663178 0.00762 -0.0034 0.077587 0.06618004 -0.0034 0.01661471 0.00762 -0.0034 0.01661471 0.02286 -0.0034 0.01662694 0.00762 -0.0034 0.01662694 0.02286 -0.0034 0.01663178 0.02286 -0.0034 0.01663178 0.02667 -0.0034 0.01287437 0.03085506 -0.0034 0.01662694 0.02667 -0.0034 0.01287437 0.02667 -0 0.01663178 0.02667 0 0.01663178 0.02286 0 0.09218841 -0.03619 0 0.09218841 0.06618004 0 0.01663178 0.00762 -0 0.01663178 0.00381 0.0041 0.085087 -0.03619 0.0041 0.085087 0.06618004 0.0041 0.01661471 0.02286 0.0041 0.01661471 0.00762 -0.01194697 -0.00832137 0.02286 -0.008772 -0.008336 0.02286 -0.00877193 -0.00832137 0.02286 0.008763 -0.008334 0.02286 -0.008709 0.005339 0.02286 0.00876302 -0.00832137 0.02286 0.00879705 -0.00832137 0.02286 0.00879687 -0.01147476 0.02286 0.008786 0.005971 0.02286 0.007075 0.008169 0.02286 0.004843 0.009117 0.02286 -0.005692 0.009004 0.02286 -0.007818 0.007318 0.02286 0.01197187 -0.01147476 0.02286 0.01197187 0.01661471 0.02286 0.01193188 0.01661471 0.02286 -0.01198701 0.01661471 0.02286 -0.01198701 -0.01147476 0.02286 -0.01194701 -0.01147476 0.02286 -0.01194697 -0.01150882 0.02286 -0.01194697 -0.01150882 0.02667 0.00879674 -0.01147928 0.02667 0.00879705 -0.01147928 0.02667 0.01197187 -0.01147476 0.02667 0.0041 0.077587 -0.03619 0.00879705 -0.00832137 0.02667 0.0041 0.077587 0.06618004 0.00876302 -0.00832137 0.02667 0.008786 0.005971 0.02667 0.007075 0.008169 0.02667 0.004843 0.009117 0.02667 -0.005692 0.009004 0.02667 -0.008709 0.005339 0.02667 -0.007818 0.007318 0.02667 0.0041 0.01280936 -0.00040635 0.0041 0.01280936 0.00381 -0.01194697 -0.00832137 0.02667 -0.00877193 -0.00832137 0.02667 0.008763 -0.008334 0.02667 -0.008772 -0.008336 0.02667 -0.005692 0.009004 0.00762 -0.007818 0.007318 0.00762 -0.005692 0.009004 0.00381 -0.007818 0.007318 0.00381 0.0041 0.01287437 0.02667 -0.01198701 0.01661471 0.02667 -0.008709 0.005339 0.00762 -0.00877193 -0.00832137 0.00762 -0.008709 0.005339 0.00381 -0.00877193 -0.00832137 0.00381 0.0041 0.01287437 0.03085506 0.01193188 0.01661471 0.00762 0.008763 -0.008334 0.00762 0.00879687 -0.01147476 0.00762 0.008763 -0.008334 0.00381 0.00879674 -0.01147928 0.00381 0.008786 0.005971 0.00762 0.007075 0.008169 0.00762 0.008786 0.005971 0.00381 0.007075 0.008169 0.00381 -0.01198701 0.01661471 0.00762 -0.008772 -0.008336 0.00762 -0.008772 -0.008336 0.00381 -0.01194697 -0.00832137 0.00762 -0.01194697 -0.00832137 0.00381 0.00876302 -0.00832137 0.00762 0.00879705 -0.00832137 0.00762 0.004843 0.009117 0.00762 -0.01194701 -0.01147476 0.00762 -0.01194697 -0.01150882 0.00762 -0.01198701 0.01661471 0.00381 0.004843 0.009117 0.00381 -0.01194697 -0.01150882 0.00381 0.00879705 -0.00832137 0.00381 0.00876302 -0.00832137 0.00381 0.01197187 -0.01147476 0.00381 0.00879705 -0.01147928 0.00381 0.01197187 0.01661471 0.00762 0.01197187 -0.01147476 0.00762 -0.01198701 -0.01147476 0.00762</float_array>
          <technique_common>
            <accessor source="#pos_0-array" count="1146" stride="3">
              <param name="X" type="float"/>
              <param name="Y" type="float"/>
              <param name="Z" type="float"/>
            </accessor>
          </technique_common>
        </source>
        <source id="norm_0">
          <float_array id="norm_0-array" count="1704">0.0007 -0.01344 -0.99991 -0.03414 -0.00456 -0.99941 -0.00884 0.01579 -0.99984 0.00508 -0.00909 -0.99995 0.0113 -0.00672 -0.99991 0.45443 0.88648 -0.0874 0.51969 0.85416 0.01832 0.95586 0.27366 -0.10697 0.97434 0.22345 -0.0272 0.89943 -0.43653 -0.02159 0.9132 -0.40658 0.02741 -0.99506 0.02772 0.09532 -0.92022 -0.32584 -0.21684 -0.69721 -0.71279 0.07627 0.0152 -0.002 -0.99988 -0.00347 -0.01119 -0.99993 0.01125 -0.0325 -0.99941 0.02167 -0.01311 -0.99968 0.01007 -0.01147 -0.99988 0.00764 0.00329 -0.99997 0.00731 0.00301 -0.99997 0.00198 0.00623 -0.99998 -0.00241 -0.01324 -0.99991 -0.00512 -0.0123 -0.99991 0.01887 0.03346 -0.99926 0.01641 0.0453 -0.99884 0.0401 0.0078 -0.99917 0.0497 0.02026 -0.99856 0.60769 -0.77832 -0.15789 -0.01583 0.00693 -0.99985 -0.7063 0.70203 -0.09106 -0.73156 0.66744 -0.13904 0.03493 -0.01695 -0.99925 0.04291 -0.01548 -0.99896 0.01694 -0.04224 -0.99896 0.03767 -0.0426 -0.99838 0.33305 -0.93789 0.09721 -0.24124 0.96725 -0.07899 -0.20275 0.97904 -0.01914 -0.0079 0.03814 -0.99924 -0.01919 0.04684 -0.99872 -0.34873 -0.92703 -0.13784 0.02026 -0.99671 0.07847 0.35658 -0.91795 -0.17385 0.82034 -0.56924 0.05486 0.8968 -0.43394 -0.08627 -0.84219 0.53914 -0.00607 -0.87658 0.46719 -0.1155 -0.0323 0.0223 -0.99923 -0.04895 0.01779 -0.99864 -0.00966 -0.98896 -0.14789 0.00324 0.00779 -0.99996 -0.10948 0.99347 0.03212 0.01809 0.99539 -0.0942 0.69376 0.71968 0.02742 0.6081 0.78931 -0.08484 -0.01974 -0.05693 -0.99818 -0.01978 -0.03622 -0.99915 -0.29368 -0.95455 0.05082 -0.58806 -0.79466 -0.15067 -0.22074 0.21065 -0.95231 -0.03106 0.07612 -0.99661 -0.04181 0.01141 -0.99906 -0.53338 -0.19269 -0.82364 0.00215 0.19271 -0.98125 0.05274 0.06995 -0.99616 -0.03971 -0.05249 -0.99783 -0.05337 -0.14364 -0.98819 0.03568 -0.09357 -0.99497 0.04013 -0.09987 -0.99419 0.14768 -0.03749 -0.98832 0.05692 -0.02599 -0.99804 0.97077 -0.23916 0.02033 0.95896 0.27143 -0.08205 0.59727 0.80177 0.02075 0.06774 0.08107 -0.9944 0.24653 0.05223 -0.96773 0.97928 0.18848 -0.07411 0.99005 0.13719 -0.03133 0.35619 -0.93406 -0.02582 0.21126 -0.97539 -0.06312 -0.59702 -0.80195 0.0208 -0.21132 0.97538 -0.06309 -0.35598 0.93414 -0.02587 -0.97077 0.23916 0.02019 0.00048 -0.00029 -1 -0 0 -1 -0.95905 -0.27108 -0.0821 -0.03377 -0.00291 -0.99943 -0.03996 -0.02827 -0.9988 -0.99795 -0.05137 0.03824 -0.95299 -0.26251 -0.15134 -0.80446 -0.59137 0.05599 -0.03723 -0.02804 -0.99891 -0.39846 -0.9168 -0.02662 -0.43443 -0.90056 -0.0164 -0.88114 -0.47146 -0.03633 -0.90049 -0.43424 -0.02343 0.00307 -0.99978 -0.02055 0.00194 -0.99978 -0.02104 -0.00142 0.00678 -0.99998 0.0014 -0 -1 -0.33974 0.94017 -0.02567 -0.4083 0.91275 -0.01363 -0.99974 -0.00094 -0.02262 -0.99977 -0.0059 -0.02049 -0 -0.0014 -1 0.0001 0.0306 -0.99953 0.00015 0.03081 -0.99953 0 -0.0014 -1 -0 0.04921 -0.99879 0.99977 -0.00451 -0.02097 0.9995 0.01328 -0.02858 0.35289 0.9351 -0.03254 0.52578 0.85062 0.00197 0.72261 0.69014 -0.03932 0.91264 0.40854 -0.01365 0.93994 0.34037 -0.02563 0.04422 0.03921 -0.99825 -0.9351 0.35289 -0.03259 -0.69015 0.72259 -0.03933 -0.85045 0.52605 0.00196 -0.03675 0.04164 -0.99846 0.01715 -0.04118 -0.999 0.00125 -0.05437 -0.99852 0.33974 -0.94017 -0.02567 0.40848 -0.91266 -0.0136 0.99974 0.00063 -0.02262 0.99977 0.00562 -0.02049 0.00137 0.00141 -1 -0.00066 0.00056 -1 -0.99977 0.00728 -0.02027 -0.99975 0.00215 -0.02247 0.69016 -0.7226 -0.03924 0.85045 -0.52605 0.00207 0.00451 0.99976 -0.02159 -0.01202 0.99952 -0.02868 0 -0.99991 0.01367 0.00759 -0.99972 0.02241 -0 -0.05723 -0.99836 -0.00063 -0.05295 -0.9986 0.04555 -0.00189 -0.99896 0.05563 -0.00011 -0.99845 0.99994 0.01002 0.00422 0.99969 0.02151 0.01244 0.99962 0.02686 -0.00567 0.99984 0.00051 0.01805 0.99972 -0.00607 0.02271 0.00275 -0.99982 0.01896 -0.57478 -0.00723 0.81827 -0.57584 -0.00669 0.81754 0.57627 -0.00668 0.81723 0.57482 -0.00743 0.81824 -0.00781 -0.99971 0.02267 -0.00234 -0.99982 0.01877 -0.99985 0.00186 0.01709 -0.99991 0.00278 0.01318 -0.99975 -0.00463 0.02169 -0.04562 -0.0019 -0.99896 -0.03743 0.00012 -0.9993 -0.00059 0.99977 -0.02136 -0 0.99978 -0.02087 0.00018 -0.05618 -0.99842 -0.00688 -0.00581 0.99996 -0.01002 -0.00896 0.99991 -0.00847 0.57231 0.81999 -0.0065 0.57615 0.81732 -0.0065 -0.57512 0.81804 -0.00773 -0.57276 0.81969 -0.99983 0.01839 0.00265 -0.05532 -0.00019 -0.99847 0 -0.05657 -0.9984 0.9998 0.00074 -0.02001 0.99978 -0.00016 -0.02075 0 0.99977 -0.02138 -0.00015 0.99977 -0.0215 -0.99972 0.013 0.01962 -0.91182 0.41028 0.01623 -0.91161 0.41073 0.01611 -0.03243 0.00894 -0.99943 -0.01126 0.01744 -0.99978 -0.0193 0.02236 -0.99956 -0.00086 0.02728 -0.99963 0.0072 -0.00619 0.99995 0.00695 -0.00643 0.99996 0.00803 0.5742 0.81868 0.00705 0.57608 0.81736 0.0076 -0.57444 0.81851 0.00706 -0.57549 0.81778 0.02887 0.02028 -0.99938 0.03216 0.00115 -0.99948 0.79726 0.60362 0.00399 0.83707 0.54654 0.02465 -0.99978 -0.00074 -0.02073 -0.99979 -0.00031 -0.02037 -0.00451 -0.99976 -0.02159 0.01205 -0.99952 -0.02868 -0.0014 0 -1 -0.0014 0 -1 0.0083 0.00777 0.99994 0.00746 0.0074 0.99994 0.003 0.00918 0.99995 -0.57496 0.00659 0.81816 -0.57512 0.0065 0.81804 0.3908 0.92016 0.02421 0.01141 0.99973 0.02012 0.01165 0.99974 0.01939 -0.00805 0.99994 0.00744 0.01094 0.00225 0.99994 -0.04112 0.99891 -0.02215 -0.02916 0.99933 0.0219 0.57513 0.00659 0.81804 0.57529 0.0065 0.81792 0.34913 0.93697 0.01409 0.00936 0.02638 -0.99961 0.01368 0.01757 -0.99975 -0.01403 0.00739 0.99987 -0.00846 0.00728 0.99994 -0.01497 -0.00842 0.99985 -0.54249 0.84006 -0.00111 -0.62078 0.78356 0.02561 0.00847 0.01956 0.99977 -0.99938 -0.02884 -0.02013 -0.99995 -0.00599 -0.00747 -0.91396 -0.40339 -0.04413 -0.70847 -0.7057 0.00725 -0.54422 -0.83806 -0.03849 -0.01594 -0.99979 -0.01254 -0.02955 -0.99936 -0.02012 0.00266 0.02372 -0.99972 0.60758 -0.79417 -0.01194 0.65634 -0.75374 -0.03305 0.99898 -0.04215 -0.016 0.9987 -0.04728 -0.01908 -0.02948 0.00281 -0.99956 -0.00473 0.00526 -0.99998 -0.00752 0.01116 -0.99991 -0.00093 0.00191 -1 -0.00217 0.99975 -0.02247 -0.00563 0.99976 -0.02099 0.00101 -0.00254 -1 0.00169 -0.0034 -0.99999 0.93531 -0.35233 -0.03258 0.00015 0.00521 -0.99999 0.00536 -0 -0.99999 0.00034 -0.01015 -0.99995 -0.01029 2E-05 -0.99995 0.00654 0.00062 -0.99998 -0 0.00347 -0.99999 -0.00247 -0.00105 -1 -0.00535 -0.00454 -0.99998 0.0004 -0.00102 -1 -0.00261 -0.00092 -1 0.02387 -0.99938 -0.02601 0.01397 -0.99968 -0.02096 0.00165 0.00156 -1 0.00339 0.00273 -0.99999 -0.00301 -0 -1 0.01042 -0.0059 -0.99993 0.04964 -3E-05 -0.99877 -0.04928 0.00749 -0.99876 0.0368 -0.0001 -0.99932 0.99991 0.00278 -0.01318 0.99975 -0.00463 -0.02169 0.04562 -0.0019 0.99896 0.03743 0.00012 0.9993 -0.0014 -0 1 0 -0.05723 0.99836 0.00063 -0.05295 0.9986 0.00066 0.00056 1 -0 -0.99991 -0.01367 -0.00759 -0.99972 -0.02241 0.00234 -0.99982 -0.01877 0.00781 -0.99971 -0.02267 0.99985 0.00186 -0.01709 0.99972 0.013 -0.01962 0.91182 0.41028 -0.01623 0.91161 0.41073 -0.01611 0.03243 0.00894 0.99943 0.01126 0.01744 0.99978 0.0193 0.02236 0.99956 0.00086 0.02728 0.99963 0.00848 0.57231 -0.81999 0.0065 0.57615 -0.81732 0.0065 -0.57512 -0.81804 0.00773 -0.57276 -0.81969 0.99983 0.01839 -0.00265 0.01002 -0.00896 -0.99991 0.00688 -0.00581 -0.99996 0.00846 0.00728 -0.99994 0.01497 -0.00842 -0.99985 0.62078 0.78356 -0.02561 0.54249 0.84006 0.00111 -0.00847 0.01956 -0.99977 0.00142 0.00678 0.99998 -0.00194 -0.99978 0.02104 -0.00307 -0.99978 0.02055 -0.99978 -0.00016 0.02075 -0.9998 0.00074 0.02001 0.05532 -0.00019 0.99847 -0 -0.05657 0.9984 0 0.99977 0.02138 0.00015 0.99977 0.0215 0.02948 0.00281 0.99956 -0.9987 -0.04728 0.01908 -0.99898 -0.04215 0.016 -0.00451 0.99976 0.02159 0.01202 0.99952 0.02868 -0.00536 -0 0.99999 -0.00034 -0.01015 0.99995 -0.00015 0.00521 0.99999 -0.00339 0.00273 0.99999 -0.00165 0.00156 1 -0.60758 -0.79417 0.01194 -0.65634 -0.75374 0.03305 -0.0004 -0.00102 1 0.00535 -0.00454 0.99998 0.01403 0.00739 -0.99987 0.04112 0.99891 0.02215 0.02916 0.99933 -0.0219 0.00805 0.99994 -0.00744 -0.00015 0.03081 0.99953 -0.00266 0.02372 0.99972 -0.02387 -0.99938 0.02601 -0.01397 -0.99968 0.02096 0.00261 -0.00092 1 0.85045 0.52605 -0.00196 0.69015 0.72259 0.03933 0.9351 0.35289 0.03259 0.90049 -0.43424 0.02343 0.88114 -0.47146 0.03633 0.03996 -0.02828 0.9988 0.03378 -0.00291 0.99943 0.04895 0.01779 0.99864 0.0323 0.0223 0.99923 0.03675 0.04164 0.99846 0.01919 0.04684 0.99872 0.0079 0.03814 0.99924 0 0.04921 0.99879 -0.01641 0.0453 0.99884 0.43443 -0.90056 0.0164 0.39846 -0.9168 0.02662 0.01029 2E-05 0.99995 0.99795 -0.05137 -0.03824 0.95299 -0.26251 0.15134 0.87658 0.46719 0.1155 0.84219 0.53914 0.00607 -0.01007 -0.01147 0.99988 -0.02167 -0.01311 0.99968 -0.00731 0.00301 0.99997 -0.00764 0.00329 0.99997 0.80446 -0.59137 -0.05599 0.03723 -0.02804 0.99891 0.01974 -0.05693 0.99818 0.01978 -0.03622 0.99915 -0.00125 -0.05437 0.99852 -0.00137 0.00141 1 0.4083 0.91275 0.01363 0.33974 0.94017 0.02567 0.00241 -0.01325 0.99991 -0.00198 0.00623 0.99998 0.58806 -0.79466 0.15067 -0.57482 -0.00743 -0.81824 -0.57627 -0.00668 -0.81723 -0.57513 0.00659 -0.81804 -0.57529 0.0065 -0.81792 -0.82034 -0.56924 -0.05486 -0.8968 -0.43394 0.08627 -0.99005 0.13719 0.03133 -0.97928 0.18848 0.07411 -0.05692 -0.02599 0.99804 -0.14768 -0.03749 0.98832 -0.24653 0.05223 0.96773 -0.69376 0.71968 -0.02742 -0.6081 0.78931 0.08484 0.24124 0.96725 0.07899 0.20275 0.97904 0.01914 -0.01125 -0.0325 0.99941 0.00347 -0.01119 0.99993 -0.06774 0.08107 0.9944 0.29368 -0.95455 -0.05082 -0.97077 -0.23916 -0.02033 -0.95896 0.27143 0.08205 -0.59727 0.80177 -0.02075 -0.05273 0.06995 0.99616 -0.00215 0.19271 0.98125 -0.35619 -0.93406 0.02582 -0.21126 -0.97539 0.06312 0 0 1 -0.00048 -0.00029 1 -0.35658 -0.91795 0.17385 -0.03568 -0.09357 0.99497 -0.04013 -0.09987 0.99419 -0.02026 -0.99671 -0.07847 0.00512 -0.0123 0.99991 0.00966 -0.98896 0.14789 0.99975 0.00215 0.02247 0.99977 0.00728 0.02027 0.99977 -0.0059 0.02049 0.99974 -0.00094 0.02262 0.21132 0.97538 0.06309 0.35598 0.93414 0.02587 0 -0.0014 1 -0.0001 0.0306 0.99953 -0.01809 0.99539 0.0942 0.10948 0.99347 -0.03212 -0.00324 0.00779 0.99996 0.01583 0.00693 0.99985 -0.0113 -0.00671 0.99991 -0.00508 -0.00908 0.99995 0.03106 0.07612 0.99661 0.22074 0.21065 0.95231 0.34873 -0.92703 0.13784 0.05337 -0.14363 0.98819 0.03971 -0.05249 0.99783 0.57478 -0.00723 -0.81827 0.57584 -0.00669 -0.81754 -0.00705 0.57608 -0.81736 -0.00803 0.5742 -0.81868 -0.00706 -0.57549 -0.81778 -0.0076 -0.57444 -0.81851 0.57512 0.0065 -0.81804 0.57496 0.00659 -0.81816 -0.01141 0.99973 -0.02012 -0.33305 -0.93789 -0.09721 -0.01694 -0.04224 0.99896 -0.03767 -0.0426 0.99838 0.59702 -0.80195 -0.0208 -0.45443 0.88648 0.0874 -0.51969 0.85416 -0.01832 -0.0007 -0.01344 0.99991 0.03413 -0.00456 0.99941 0.00884 0.01579 0.99984 -0.01887 0.03346 0.99926 0.73156 0.66744 0.13904 0.7063 0.70203 0.09106 -0.01715 -0.04118 0.999 -0.33974 -0.94017 0.02567 -0.40849 -0.91266 0.0136 -0.99974 0.00063 0.02262 -0.99977 0.00562 0.02049 0 -0.0014 1 -0.99977 -0.00451 0.02097 -0.9995 0.01328 0.02858 -0.35289 0.9351 0.03254 -0.52578 0.85062 -0.00197 -0.72261 0.69014 0.03932 -0.91264 0.40854 0.01365 -0.93994 0.34037 0.02563 0.02955 -0.99936 0.02012 0.01594 -0.99979 0.01254 0.00059 0.99977 0.02136 0 0.99978 0.02087 -0.00018 -0.05619 0.99842 -0.05564 -0.00011 0.99845 -0.04555 -0.00189 0.99896 -0.0368 -0.0001 0.99932 -0.03216 0.00115 0.99948 -0.0152 -0.002 0.99988 0.69721 -0.71279 -0.07627 0.95905 -0.27108 0.0821 -0.00654 0.00062 0.99998 -0 0.00347 0.99999 -0.00169 -0.0034 0.99999 -0.00101 -0.00254 1 -0.60769 -0.77832 0.15789 0.97077 0.23916 -0.02019 0.04181 0.01141 0.99906 0.92022 -0.32584 0.21684 0.53337 -0.19269 0.82364 0.99506 0.02772 -0.09532 -0.69016 -0.7226 0.03924 -0.85045 -0.52605 -0.00207 -0.9132 -0.40658 -0.02741 -0.89943 -0.43653 0.02159 -0.03493 -0.01695 0.99925 -0.04291 -0.01548 0.99896 -0.04422 0.03921 0.99825 -0.0497 0.02026 0.99856 -0.0401 0.0078 0.99917 -0.04964 -3E-05 0.99877 -0.00695 -0.00643 -0.99996 -0.0072 -0.00619 -0.99995 -0.0083 0.00777 -0.99994 -0.00746 0.0074 -0.99994 -0.003 0.00918 -0.99995 -0.00275 -0.99982 -0.01896 -0.95586 0.27366 0.10697 -0.97434 0.22345 0.0272 0.00247 -0.00105 1 0.00473 0.00526 0.99998 0.00752 0.01116 0.99991 -0.93531 -0.35233 0.03258 0.0014 0 1 0.0014 0 1 0.00451 -0.99976 0.02159 -0.01205 -0.99952 0.02868 0.00217 0.99975 0.02247 0.00563 0.99976 0.02099 0.00093 0.00191 1 -0.34913 0.93697 -0.01409 -0.01165 0.99974 -0.01939 -0.00936 0.02638 0.99961 -0.01368 0.01757 0.99975 -0.3908 0.92016 -0.02421 0.54422 -0.83806 0.03849 0.70847 -0.7057 -0.00725 -0.01042 -0.0059 0.99993 0.91396 -0.40339 0.04413 -0.79726 0.60362 -0.00399 -0.83707 0.54654 -0.02465 -0.02887 0.02028 0.99938 -0.01094 0.00225 -0.99994 0.99995 -0.00599 0.00747 0.99938 -0.02884 0.02013 0.99979 -0.00031 0.02037 0.99978 -0.00074 0.02073 0.00301 -0 1 -0.99962 0.02686 0.00567 -0.99969 0.02151 -0.01244 -0.99984 0.00051 -0.01805 -0.99972 -0.00607 -0.02271 -0.99994 0.01002 -0.00422 0.04928 0.00749 0.99876 0.76873 0.63957 -0 0.00142 -1 0 -1 -0 -0 0 -1 0 0 1 0 0.86603 0.5 -0 1 -0 0 0.00164 -1 0 0.00142 -1 -0.00119 0 -1 -0.00119 0.00142 -1 -0 -1 6E-05 0 -1 -0 5E-05 -1 0.00161 0 -0.7891 -0.61426 0 -0.39093 -0.92042 0 0.01073 -0.99994 0 0.91184 -0.41054 0 -0.00011 1 0 0.62136 -0.78352 0 0.99999 -0.00461 0 0.99994 0.01078 0 0.99994 0.01073 -5E-05 -0.00142 1 -0 -0.00142 1 -0 -0.00142 1 0 1 0.00145 -0 1 0.00142 0 1 0.00142 0 0.00461 0.99999 0 -1 -0.00142 0 -1 -0.00142 -0 -1 -0.00142 0 -0.00142 1 0 -1 6E-05 -5E-05 0.00142 -1 0.00119 1 0.00142 -0 -1 -0.00142 0 0.00164 -1 0.00119 0.00142 -1 -0 0 -0.47914 0.87774 0 -0.48354 -0.87532 0.99994 0.01078 5E-05 0.99994 0.01073 -0</float_array>
          <technique_common>
            <accessor source="#norm_0-array" count="1704" stride="3">
              <param name="X" type="float"/>
              <param name="Y" type="float"/>
              <param name="Z" type="float"/>
            </accessor>
          </technique_common>
        </source>
        <vertices id="vert_0">
          <input semantic="POSITION" source="#pos_0"/>
        </vertices>
        <triangles count="752" material="mat_0">
          <input semantic="VERTEX" source="#vert_0" offset="0"/>
          <input semantic="NORMAL" source="#norm_0" offset="1"/>
          <p>0 0 1 0 2 0 1 1 3 1 2 1 2 2 3 2 4 2 3 3 5 3 4 3 4 4 5 4 6 4 1 5 0 5 7 5 8 6 1 6 7 6 1 7 8 7 3 7 8 8 9 8 3 8 3 9 9 9 10 9 5 10 3 10 10 10 2 11 4 11 11 11 2 12 11 12 12 12 2 13 12 13 13 13 2 14 13 14 0 14 13 15 14 15 0 15 0 16 14 16 15 16 14 17 16 17 15 17 15 18 16 18 17 18 16 19 18 19 17 19 17 20 18 20 19 20 18 21 20 21 19 21 19 22 20 22 21 22 20 23 6 23 21 23 8 24 7 24 22 24 7 25 23 25 22 25 9 26 8 26 24 26 8 27 25 27 24 27 5 28 10 28 6 28 26 29 4 29 6 29 4 30 26 30 27 30 11 31 4 31 27 31 10 32 9 32 28 32 9 33 29 33 28 33 30 34 10 34 31 34 10 35 28 35 31 35 10 36 30 36 6 36 0 37 15 37 32 37 7 38 0 38 32 38 7 39 32 39 33 39 32 40 34 40 33 40 13 41 12 41 35 41 13 42 35 42 14 42 14 43 35 43 36 43 14 44 36 44 16 44 36 45 37 45 16 45 32 46 15 46 38 46 15 47 17 47 38 47 32 48 38 48 39 48 38 49 40 49 39 49 6 50 30 50 21 50 20 51 26 51 6 51 26 52 20 52 27 52 20 53 41 53 27 53 20 54 18 54 42 54 41 55 20 55 42 55 43 56 30 56 44 56 30 57 45 57 44 57 30 58 43 58 21 58 21 59 43 59 19 59 11 60 27 60 46 60 27 61 47 61 46 61 48 62 11 62 46 62 11 63 48 63 12 63 27 64 41 64 47 64 41 65 49 65 47 65 12 66 48 66 50 66 35 67 12 67 50 67 36 68 35 68 51 68 35 69 50 69 51 69 51 70 49 70 36 70 49 71 37 71 36 71 49 72 51 72 52 72 49 73 52 73 53 73 49 74 53 74 47 74 41 75 42 75 49 75 42 76 37 76 49 76 42 77 18 77 37 77 18 78 16 78 37 78 51 79 50 79 52 79 50 80 54 80 52 80 50 81 48 81 54 81 47 82 53 82 55 82 46 83 47 83 55 83 46 84 55 84 48 84 55 85 53 85 54 85 53 86 52 86 54 86 55 87 54 87 48 87 38 88 56 88 57 88 56 89 44 89 57 89 56 90 38 90 17 90 19 91 56 91 17 91 56 92 19 92 43 92 56 93 43 93 44 93 44 94 45 94 58 94 59 95 44 95 58 95 44 96 59 96 57 96 59 97 60 97 57 97 57 98 60 98 61 98 62 99 57 99 61 99 57 100 62 100 40 100 62 101 63 101 40 101 33 102 34 102 64 102 34 103 65 103 64 103 33 104 64 104 66 104 67 105 33 105 66 105 33 106 67 106 68 106 67 107 69 107 68 107 68 108 69 108 70 108 68 109 23 109 33 109 23 110 7 110 33 110 23 111 68 111 71 111 72 112 23 112 71 112 23 113 72 113 22 113 72 114 73 114 22 114 22 115 73 115 25 115 73 116 74 116 25 116 25 117 74 117 24 117 22 118 25 118 8 118 39 119 40 119 75 119 34 120 39 120 65 120 39 121 75 121 65 121 39 122 34 122 32 122 31 123 76 123 30 123 76 124 45 124 30 124 76 125 31 125 77 125 31 126 78 126 77 126 76 127 77 127 79 127 80 128 76 128 79 128 76 129 80 129 45 129 80 130 81 130 45 130 45 131 81 131 82 131 58 132 45 132 82 132 31 133 28 133 78 133 28 134 83 134 78 134 40 135 63 135 84 135 75 136 40 136 84 136 85 137 86 137 87 137 86 138 88 138 87 138 86 139 85 139 80 139 85 140 81 140 80 140 89 141 86 141 90 141 86 142 91 142 90 142 86 143 89 143 92 143 89 144 93 144 92 144 92 145 93 145 94 145 95 146 86 146 96 146 86 147 92 147 96 147 86 148 95 148 88 148 87 149 88 149 97 149 98 150 87 150 97 150 87 151 98 151 99 151 100 152 87 152 99 152 87 153 100 153 85 153 100 154 101 154 85 154 85 155 101 155 102 155 103 156 85 156 104 156 85 157 102 157 104 157 85 158 103 158 62 158 103 159 63 159 62 159 80 160 79 160 91 160 79 161 105 161 91 161 80 162 91 162 86 162 100 163 99 163 102 163 101 164 100 164 102 164 102 165 99 165 104 165 99 166 98 166 104 166 104 167 98 167 106 167 107 168 104 168 106 168 104 169 107 169 108 169 62 170 109 170 85 170 109 171 81 171 85 171 109 172 62 172 110 172 62 173 61 173 110 173 109 174 110 174 81 174 110 175 82 175 81 175 108 176 103 176 104 176 103 177 108 177 111 177 112 178 103 178 111 178 103 179 112 179 113 179 112 180 69 180 113 180 113 181 69 181 114 181 69 182 67 182 114 182 95 183 96 183 97 183 88 184 95 184 97 184 96 185 92 185 97 185 92 186 98 186 97 186 92 187 94 187 115 187 98 188 92 188 115 188 116 189 89 189 117 189 89 190 118 190 117 190 89 191 116 191 119 191 93 192 89 192 119 192 90 193 91 193 105 193 120 194 90 194 105 194 90 195 120 195 29 195 120 196 83 196 29 196 90 197 29 197 118 197 29 198 24 198 118 198 115 199 94 199 93 199 121 200 115 200 122 200 115 201 119 201 122 201 115 202 121 202 123 202 98 203 115 203 123 203 122 204 119 204 116 204 121 205 122 205 123 205 122 206 70 206 123 206 123 207 70 207 69 207 93 208 119 208 115 208 124 209 123 209 125 209 123 210 69 210 125 210 123 211 124 211 106 211 98 212 123 212 106 212 116 213 70 213 122 213 70 214 116 214 126 214 116 215 117 215 126 215 106 216 124 216 125 216 107 217 106 217 108 217 106 218 111 218 108 218 125 219 69 219 112 219 111 220 125 220 112 220 125 221 111 221 106 221 117 222 118 222 127 222 128 223 117 223 127 223 117 224 128 224 129 224 117 225 129 225 126 225 129 226 130 226 126 226 126 227 130 227 71 227 68 228 126 228 71 228 126 229 68 229 70 229 113 230 114 230 131 230 132 231 113 231 131 231 113 232 132 232 84 232 63 233 113 233 84 233 113 234 63 234 103 234 74 235 73 235 128 235 73 236 129 236 128 236 127 237 74 237 128 237 74 238 127 238 24 238 127 239 118 239 24 239 73 240 72 240 130 240 72 241 71 241 130 241 29 242 83 242 28 242 82 243 110 243 59 243 110 244 61 244 59 244 59 245 61 245 60 245 58 246 82 246 59 246 77 247 78 247 79 247 78 248 105 248 79 248 78 249 83 249 120 249 64 250 65 250 131 250 65 251 132 251 131 251 66 252 64 252 131 252 66 253 131 253 114 253 67 254 66 254 114 254 65 255 75 255 132 255 75 256 84 256 132 256 120 257 105 257 78 257 130 258 129 258 73 258 24 259 29 259 9 259 40 260 38 260 57 260 89 261 90 261 118 261 133 262 134 262 135 262 134 263 136 263 135 263 134 264 133 264 137 264 133 265 138 265 137 265 137 266 138 266 139 266 140 267 134 267 141 267 134 268 142 268 141 268 141 269 142 269 143 269 134 270 140 270 144 270 140 271 145 271 144 271 146 272 134 272 147 272 134 273 144 273 147 273 134 274 146 274 136 274 148 275 133 275 135 275 133 276 148 276 149 276 150 277 133 277 149 277 133 278 150 278 151 278 150 279 152 279 151 279 151 280 152 280 153 280 152 281 154 281 153 281 135 282 136 282 155 282 156 283 135 283 155 283 135 284 156 284 157 284 158 285 135 285 157 285 135 286 158 286 148 286 146 287 147 287 136 287 147 288 155 288 136 288 158 289 157 289 148 289 157 290 149 290 148 290 150 291 149 291 159 291 152 292 150 292 159 292 159 293 149 293 157 293 160 294 137 294 139 294 137 295 160 295 161 295 160 296 162 296 161 296 137 297 161 297 163 297 164 298 137 298 163 298 137 299 164 299 134 299 164 300 142 300 134 300 164 301 163 301 142 301 163 302 165 302 142 302 151 303 138 303 133 303 138 304 151 304 166 304 151 305 167 305 166 305 138 306 166 306 139 306 166 307 168 307 139 307 163 308 161 308 169 308 161 309 162 309 169 309 165 310 163 310 169 310 166 311 167 311 168 311 167 312 170 312 168 312 151 313 153 313 171 313 167 314 151 314 171 314 167 315 171 315 170 315 171 316 172 316 170 316 173 317 159 317 157 317 159 318 173 318 174 318 152 319 159 319 174 319 175 320 152 320 174 320 152 321 175 321 176 321 175 322 177 322 176 322 171 323 153 323 178 323 153 324 154 324 178 324 171 325 178 325 172 325 168 326 170 326 179 326 170 327 180 327 179 327 139 328 168 328 179 328 162 329 160 329 169 329 160 330 181 330 169 330 181 331 160 331 182 331 160 332 183 332 182 332 139 333 179 333 183 333 179 334 184 334 183 334 179 335 180 335 184 335 180 336 185 336 184 336 184 337 185 337 186 337 185 338 187 338 186 338 186 339 187 339 188 339 169 340 181 340 189 340 181 341 143 341 189 341 169 342 189 342 165 342 183 343 190 343 182 343 190 344 191 344 182 344 190 345 183 345 192 345 183 346 184 346 192 346 190 347 192 347 193 347 192 348 194 348 193 348 191 349 190 349 195 349 190 350 193 350 195 350 182 351 191 351 196 351 182 352 196 352 181 352 196 353 197 353 181 353 181 354 197 354 143 354 197 355 198 355 143 355 143 356 198 356 141 356 170 357 172 357 180 357 172 358 185 358 180 358 199 359 191 359 200 359 191 360 195 360 200 360 191 361 199 361 196 361 147 362 144 362 155 362 144 363 156 363 155 363 173 364 157 364 174 364 157 365 156 365 174 365 193 366 194 366 201 366 202 367 193 367 201 367 193 368 202 368 195 368 202 369 203 369 195 369 202 370 201 370 204 370 201 371 205 371 204 371 203 372 202 372 204 372 195 373 203 373 200 373 203 374 206 374 200 374 192 375 184 375 207 375 184 376 186 376 207 376 192 377 207 377 194 377 207 378 208 378 194 378 206 379 203 379 204 379 196 380 199 380 197 380 204 381 205 381 209 381 204 382 209 382 210 382 204 383 210 383 211 383 204 384 211 384 206 384 211 385 212 385 206 385 209 386 205 386 213 386 214 387 209 387 213 387 209 388 214 388 210 388 214 389 215 389 210 389 201 390 194 390 216 390 201 391 216 391 205 391 216 392 213 392 205 392 194 393 208 393 216 393 217 394 199 394 200 394 199 395 217 395 197 395 165 396 189 396 143 396 142 397 165 397 143 397 178 398 154 398 185 398 172 399 178 399 185 399 210 400 215 400 211 400 215 401 218 401 211 401 185 402 154 402 176 402 154 403 152 403 176 403 200 404 206 404 212 404 219 405 200 405 212 405 200 406 219 406 217 406 219 407 220 407 217 407 217 408 220 408 221 408 220 409 222 409 221 409 211 410 218 410 212 410 218 411 223 411 212 411 216 412 208 412 224 412 216 413 224 413 213 413 224 414 225 414 213 414 144 415 145 415 226 415 156 416 144 416 226 416 156 417 226 417 227 417 226 418 228 418 227 418 156 419 227 419 229 419 227 420 230 420 229 420 156 421 229 421 174 421 229 422 231 422 174 422 174 423 231 423 232 423 197 424 217 424 233 424 197 425 233 425 234 425 233 426 235 426 234 426 213 427 225 427 214 427 207 428 186 428 236 428 186 429 237 429 236 429 207 430 236 430 238 430 236 431 222 431 238 431 238 432 222 432 220 432 237 433 186 433 188 433 212 434 223 434 220 434 219 435 212 435 220 435 234 436 198 436 197 436 198 437 234 437 239 437 234 438 240 438 239 438 198 439 239 439 241 439 141 440 198 440 241 440 176 441 187 441 185 441 187 442 176 442 242 442 243 443 187 443 242 443 187 444 243 444 188 444 243 445 244 445 188 445 188 446 244 446 245 446 244 447 246 447 245 447 245 448 246 448 247 448 176 449 177 449 242 449 177 450 248 450 242 450 141 451 241 451 249 451 241 452 250 452 249 452 141 453 249 453 140 453 249 454 251 454 140 454 140 455 251 455 252 455 251 456 253 456 252 456 252 457 253 457 254 457 238 458 208 458 207 458 208 459 238 459 224 459 214 460 225 460 215 460 239 461 240 461 241 461 240 462 250 462 241 462 242 463 248 463 243 463 248 464 244 464 243 464 217 465 221 465 233 465 218 466 215 466 225 466 218 467 225 467 223 467 224 468 238 468 223 468 224 469 223 469 225 469 220 470 223 470 238 470 234 471 235 471 240 471 235 472 255 472 240 472 233 473 221 473 222 473 256 474 233 474 222 474 233 475 256 475 235 475 256 476 257 476 235 476 188 477 245 477 237 477 245 478 247 478 237 478 237 479 247 479 256 479 247 480 257 480 256 480 226 481 145 481 258 481 228 482 226 482 258 482 229 483 230 483 259 483 231 484 229 484 232 484 229 485 260 485 232 485 258 486 145 486 140 486 236 487 237 487 222 487 237 488 256 488 222 488 240 489 255 489 261 489 246 490 244 490 262 490 244 491 263 491 262 491 235 492 257 492 255 492 251 493 257 493 253 493 257 494 247 494 253 494 257 495 251 495 261 495 255 496 257 496 261 496 247 497 246 497 264 497 253 498 247 498 264 498 264 499 246 499 262 499 265 500 175 500 232 500 175 501 174 501 232 501 175 502 265 502 177 502 265 503 254 503 177 503 232 504 260 504 265 504 248 505 177 505 263 505 177 506 254 506 263 506 248 507 263 507 244 507 263 508 254 508 262 508 265 509 260 509 252 509 260 510 259 510 252 510 265 511 252 511 254 511 259 512 260 512 229 512 262 513 254 513 264 513 254 514 253 514 264 514 261 515 251 515 250 515 251 516 249 516 250 516 261 517 250 517 240 517 259 518 230 518 227 518 252 519 259 519 227 519 228 520 258 520 140 520 227 521 228 521 140 521 140 522 252 522 227 522 139 523 183 523 160 523 266 524 267 524 268 524 267 524 269 524 268 524 268 524 269 524 270 524 269 524 271 524 270 524 268 525 270 525 272 525 270 525 273 525 272 525 274 526 275 526 276 526 275 526 277 526 276 526 276 526 277 526 278 526 279 526 280 526 275 526 274 526 281 526 275 526 281 526 282 526 275 526 275 526 282 526 279 526 283 526 284 526 285 526 284 526 286 526 285 526 285 526 286 526 281 526 286 526 287 526 281 526 281 526 287 526 282 526 287 526 288 526 282 526 282 526 288 526 289 526 288 526 290 526 289 526 289 526 290 526 291 526 290 86 288 86 292 86 288 527 287 527 292 527 287 527 293 527 292 527 286 388 293 388 287 388 280 528 279 528 294 528 279 528 295 528 294 528 281 527 274 527 296 527 274 527 297 527 296 527 276 388 297 388 274 388 285 86 281 86 296 86 298 529 294 529 299 529 294 529 295 529 299 529 300 530 301 530 273 530 301 530 272 530 273 530 302 388 303 388 304 388 303 388 305 388 304 388 306 388 304 388 307 388 304 388 305 388 307 388 307 388 305 388 308 388 305 388 309 388 308 388 310 388 311 388 307 388 311 388 312 388 307 388 312 388 313 388 307 388 313 388 314 388 307 388 307 388 314 388 306 388 315 388 316 388 317 388 318 388 319 388 320 388 321 531 309 531 322 531 309 532 323 532 322 532 309 533 315 533 324 533 315 534 325 534 324 534 280 86 294 86 275 86 294 86 298 86 275 86 275 86 298 86 326 86 308 535 309 535 327 535 309 536 324 536 327 536 295 388 279 388 299 388 279 388 282 388 299 388 299 388 282 388 328 388 307 527 308 527 329 527 308 527 327 527 329 527 310 537 307 537 330 537 307 537 329 537 330 537 311 538 310 538 331 538 310 538 330 538 331 538 312 539 311 539 332 539 311 539 331 539 332 539 313 540 312 540 333 540 312 540 332 540 333 540 306 541 314 541 334 541 314 541 335 541 334 541 277 527 336 527 278 527 336 527 337 527 278 527 302 527 304 527 338 527 304 527 339 527 338 527 305 542 303 542 340 542 303 542 341 542 340 542 342 543 343 543 344 543 343 543 345 543 344 543 338 388 339 388 334 388 322 388 323 388 340 388 330 388 329 388 327 388 271 388 269 388 346 388 324 388 325 388 327 388 325 388 271 388 327 388 327 388 271 388 330 388 271 388 346 388 330 388 330 388 346 388 331 388 290 388 347 388 335 388 340 388 341 388 322 388 341 388 338 388 322 388 322 388 338 388 347 388 338 388 334 388 347 388 347 388 334 388 335 388 290 388 335 388 291 388 335 388 333 388 291 388 291 388 333 388 346 388 333 388 332 388 346 388 346 388 332 388 331 388 348 544 349 544 350 544 349 544 351 544 350 544 352 530 346 530 328 530 346 530 269 530 328 530 328 530 269 530 267 530 337 530 336 530 267 530 336 530 326 530 267 530 267 530 326 530 328 530 326 530 298 530 328 530 328 530 298 530 299 530 343 541 348 541 345 541 348 541 350 541 345 541 353 388 268 388 301 388 268 388 272 388 301 388 354 545 355 545 356 545 355 546 357 546 356 546 292 547 293 547 290 547 293 548 286 548 290 548 290 549 286 549 347 549 286 549 318 549 347 549 358 538 359 538 360 538 359 538 361 538 360 538 270 550 271 550 317 550 271 551 325 551 317 551 317 552 325 552 315 552 283 528 362 528 284 528 362 528 318 528 284 528 363 542 354 542 364 542 354 542 356 542 364 542 365 553 363 553 366 553 363 553 364 553 366 553 321 554 322 554 320 554 322 555 347 555 320 555 320 556 347 556 318 556 283 388 285 388 362 388 291 527 346 527 289 527 346 527 352 527 289 527 303 553 302 553 341 553 302 553 338 553 341 553 349 86 348 86 343 86 365 86 349 86 363 86 349 86 367 86 363 86 363 86 367 86 354 86 367 86 368 86 354 86 354 86 368 86 355 86 359 86 358 86 369 86 358 86 367 86 369 86 349 86 343 86 367 86 343 86 342 86 367 86 367 86 342 86 369 86 314 543 313 543 335 543 313 543 333 543 335 543 355 388 370 388 371 388 286 86 284 86 318 86 296 557 297 557 285 557 297 548 276 548 285 548 285 549 276 549 362 549 276 549 372 549 362 549 369 540 342 540 373 540 342 540 344 540 373 540 374 86 372 86 366 86 374 86 366 86 357 86 366 86 364 86 357 86 357 86 364 86 356 86 372 86 276 86 278 86 351 86 366 86 350 86 366 86 372 86 350 86 350 86 372 86 345 86 372 86 278 86 345 86 375 86 376 86 360 86 337 86 267 86 360 86 267 86 266 86 360 86 360 86 266 86 375 86 266 86 377 86 375 86 375 86 377 86 378 86 360 86 361 86 337 86 361 86 373 86 337 86 337 86 373 86 278 86 373 86 344 86 278 86 278 86 344 86 345 86 349 527 365 527 351 527 365 527 366 527 351 527 270 86 317 86 273 86 317 86 300 86 273 86 321 86 320 86 309 86 359 539 369 539 361 539 369 539 373 539 361 539 367 537 358 537 376 537 358 537 360 537 376 537 368 527 367 527 375 527 367 527 376 527 375 527 316 528 379 528 317 528 379 528 353 528 317 528 317 528 353 528 300 528 353 528 301 528 300 528 355 558 368 558 378 558 368 526 375 526 378 526 380 527 355 527 377 527 355 559 378 559 377 559 380 552 377 552 353 552 377 560 266 560 353 560 353 550 266 550 268 550 316 530 315 530 379 530 315 530 380 530 379 530 362 556 372 556 370 556 372 561 374 561 370 561 370 554 374 554 371 554 380 527 315 527 355 527 315 527 309 527 355 527 355 527 309 527 370 527 309 527 320 527 370 527 370 527 320 527 381 527 320 527 319 527 381 527 355 562 371 562 357 562 371 563 374 563 357 563 289 564 352 564 282 564 352 564 328 564 282 564 304 544 306 544 339 544 306 544 334 544 339 544 370 86 381 86 362 86 319 526 318 526 381 526 318 526 362 526 381 526 275 565 326 565 277 565 326 565 336 565 277 565 309 566 305 566 323 566 305 567 340 567 323 567 353 86 379 86 380 86</p>
        </triangles>
      </mesh>
    </geometry>
  </library_geometries>
  <library_visual_scenes>
    <visual_scene id="DefaultScene">
      <node id="node_1d529dd1_2982_4566_8904_c526d4a3db11" type="NODE">
        <matrix>1 0 0 0 0 1 0 0 0 0 1 0 0 0 0 1</matrix>
        <node id="node_bf491c22_856e_4e9c_8332_34e7cfeb20a4" type="NODE">
          <matrix>1 0 0 0 0 1 0 0 0 0 1 0 0 0 0 1</matrix>
          <node id="node_bf491c22_856e_4e9c_8332_34e7cfeb20a4_mesh0" type="NODE">
            <matrix>1 0 0 0 0 1 0 0 0 0 1 0 0 0 0 1</matrix>
            <instance_geometry url="#geometry_0776fe8c_8f6e_4b65_bf2f_4741d848fbe7">
              <bind_material>
                <technique_common>
                  <instance_material symbol="mat_0" target="#mat_0"/>
                </technique_common>
              </bind_material>
            </instance_geometry>
          </node>
        </node>
      </node>
    </visual_scene>
  </library_visual_scenes>
  <scene>
    <instance_visual_scene url="#DefaultScene"/>
  </scene>
</COLLADA>
